# Blender 5.0.1
# www.blender.org
mtllib food_processor_mixer.mtl
o base
v 1.062500 0.750000 -0.312500
v 1.062500 0.750000 -0.437500
v 1.062500 0.187500 -0.312500
v 1.062500 0.187500 -0.437500
v 0.937500 0.750000 -0.437500
v 0.937500 0.750000 -0.312500
v 0.937500 0.187500 -0.437500
v 0.937500 0.187500 -0.312500
v 1.062500 1.000000 0.062500
v 1.062500 1.000000 -0.062500
v 1.062500 0.875000 0.062500
v 1.062500 0.875000 -0.062500
v 0.937500 1.000000 -0.062500
v 0.937500 1.000000 0.062500
v 0.937500 0.875000 -0.062500
v 0.937500 0.875000 0.062500
v 1.062500 0.875000 0.437500
v 1.062500 0.875000 -0.437500
v 1.062500 0.750000 0.437500
v 1.062500 0.750000 -0.437500
v 0.937500 0.875000 -0.437500
v 0.937500 0.875000 0.437500
v 0.937500 0.750000 -0.437500
v 0.937500 0.750000 0.437500
v 1.062500 0.750000 0.437500
v 1.062500 0.750000 0.312500
v 1.062500 0.187500 0.437500
v 1.062500 0.187500 0.312500
v 0.937500 0.750000 0.312500
v 0.937500 0.750000 0.437500
v 0.937500 0.187500 0.312500
v 0.937500 0.187500 0.437500
vn -0.0000 -0.0000 -1.0000
vn 1.0000 -0.0000 -0.0000
vn -0.0000 -0.0000 1.0000
vn -1.0000 -0.0000 -0.0000
vn -0.0000 1.0000 -0.0000
vn -0.0000 -1.0000 -0.0000
vt 0.812500 0.929688
vt 0.828125 0.929688
vt 0.828125 1.000000
vt 0.812500 1.000000
vt 0.000000 0.617188
vt 0.047991 0.617188
vt 0.047991 0.671875
vt 0.000000 0.671875
vt 0.812500 0.984375
vt 0.828125 0.984375
vt 0.828125 0.890625
vt 0.812500 0.890625
vt 0.000000 0.539062
vt 0.047991 0.539062
vt 0.047991 0.593750
vt 0.000000 0.593750
s 1
usemtl m_348860e1-0fe6-511b-0084-d6999316f65c.001
f 4/1/1 7/2/1 5/3/1 2/4/1
f 3/1/2 4/2/2 2/3/2 1/4/2
f 8/1/3 3/2/3 1/3/3 6/4/3
f 7/1/4 8/2/4 6/3/4 5/4/4
f 6/5/5 1/6/5 2/7/5 5/8/5
f 7/9/6 4/10/6 3/3/6 8/4/6
f 12/9/1 15/10/1 13/3/1 10/4/1
f 11/9/2 12/10/2 10/3/2 9/4/2
f 16/9/3 11/10/3 9/3/3 14/4/3
f 15/9/4 16/10/4 14/3/4 13/4/4
f 14/9/5 9/10/5 10/3/5 13/4/5
f 15/9/6 12/10/6 11/3/6 16/4/6
f 20/9/1 23/10/1 21/3/1 18/4/1
f 19/11/2 20/3/2 18/4/2 17/12/2
f 24/9/3 19/10/3 17/3/3 22/4/3
f 23/11/4 24/3/4 22/4/4 21/12/4
f 22/11/5 17/3/5 18/4/5 21/12/5
f 23/11/6 20/3/6 19/4/6 24/12/6
f 28/1/1 31/2/1 29/3/1 26/4/1
f 27/1/2 28/2/2 26/3/2 25/4/2
f 32/1/3 27/2/3 25/3/3 30/4/3
f 31/1/4 32/2/4 30/3/4 29/4/4
f 30/13/5 25/14/5 26/15/5 29/16/5
f 31/9/6 28/10/6 27/3/6 32/4/6
