# Blender 5.0.1
# www.blender.org
mtllib food_processor.mtl
o base
v 1.062500 0.375000 -0.062500
v 1.062500 0.375000 -0.687500
v 1.062500 0.312500 -0.062500
v 1.062500 0.312500 -0.687500
v 0.875000 0.375000 -0.687500
v 0.875000 0.375000 -0.062500
v 0.875000 0.312500 -0.687500
v 0.875000 0.312500 -0.062500
v 1.062500 1.000000 0.062500
v 1.062500 1.000000 -0.062500
v 1.062500 0.125000 0.062500
v 1.062500 0.125000 -0.062500
v 0.937500 1.000000 -0.062500
v 0.937500 1.000000 0.062500
v 0.937500 0.125000 -0.062500
v 0.937500 0.125000 0.062500
v 1.125000 0.250000 0.687500
v 1.125000 0.250000 0.062500
v 1.125000 0.187500 0.687500
v 1.125000 0.187500 0.062500
v 0.937500 0.250000 0.062500
v 0.937500 0.250000 0.687500
v 0.937500 0.187500 0.062500
v 0.937500 0.187500 0.687500
vn -0.0000 -0.0000 -1.0000
vn 1.0000 -0.0000 -0.0000
vn -0.0000 -0.0000 1.0000
vn -1.0000 -0.0000 -0.0000
vn -0.0000 1.0000 -0.0000
vn -0.0000 -1.0000 -0.0000
vt 0.781250 0.992188
vt 0.804688 0.992188
vt 0.804688 1.000000
vt 0.781250 1.000000
vt 0.789062 0.921875
vt 0.789062 1.000000
vt 0.781250 0.921875
vt 0.804688 0.921875
vt 0.812500 0.890625
vt 0.828125 0.890625
vt 0.828125 1.000000
vt 0.812500 1.000000
vt 0.812500 0.984375
vt 0.828125 0.984375
s 1
usemtl m_348860e1-0fe6-511b-0084-d6999316f65c
f 4/1/1 7/2/1 5/3/1 2/4/1
f 3/5/2 4/6/2 2/4/2 1/7/2
f 8/1/3 3/2/3 1/3/3 6/4/3
f 7/5/4 8/6/4 6/4/4 5/7/4
f 6/7/5 1/8/5 2/3/5 5/4/5
f 7/7/6 4/8/6 3/3/6 8/4/6
f 12/9/1 15/10/1 13/11/1 10/12/1
f 11/9/2 12/10/2 10/11/2 9/12/2
f 16/9/3 11/10/3 9/11/3 14/12/3
f 15/9/4 16/10/4 14/11/4 13/12/4
f 14/13/5 9/14/5 10/11/5 13/12/5
f 15/13/6 12/14/6 11/11/6 16/12/6
f 20/2/1 23/1/1 21/4/1 18/3/1
f 19/7/2 20/4/2 18/6/2 17/5/2
f 24/2/3 19/1/3 17/4/3 22/3/3
f 23/7/4 24/4/4 22/6/4 21/5/4
f 22/8/5 17/7/5 18/4/5 21/3/5
f 23/8/6 20/7/6 19/4/6 24/3/6
