# Blender 5.0.1
# www.blender.org
mtllib cookpot.mtl

o base
v 0.625000 0.000000 0.625000
v 0.625000 -0.000000 -0.625000
v 0.625000 -0.500000 0.625000
v 0.625000 -0.500000 -0.625000
v -0.625000 -0.000000 -0.625000
v -0.625000 0.000000 0.625000
v -0.625000 -0.500000 -0.625000
v -0.625000 -0.500000 0.625000
v -0.687500 -0.000000 -0.687500
v -0.687500 -0.000000 -0.937500
v -0.687500 -0.500000 -0.687500
v -0.687500 -0.500000 -0.937500
v -0.937500 -0.000000 -0.937500
v -0.937500 -0.000000 -0.687500
v -0.937500 -0.500000 -0.937500
v -0.937500 -0.500000 -0.687500
v 0.937500 -0.000000 -0.687500
v 0.937500 -0.000000 -0.937500
v 0.937500 -0.500000 -0.687500
v 0.937500 -0.500000 -0.937500
v 0.687500 -0.000000 -0.937500
v 0.687500 -0.000000 -0.687500
v 0.687500 -0.500000 -0.937500
v 0.687500 -0.500000 -0.687500
v 0.937500 0.000000 0.937500
v 0.937500 0.000000 0.687500
v 0.937500 -0.500000 0.937500
v 0.937500 -0.500000 0.687500
v 0.687500 0.000000 0.687500
v 0.687500 0.000000 0.937500
v 0.687500 -0.500000 0.687500
v 0.687500 -0.500000 0.937500
v -0.687500 0.000000 0.937500
v -0.687500 0.000000 0.687500
v -0.687500 -0.500000 0.937500
v -0.687500 -0.500000 0.687500
v -0.937500 0.000000 0.687500
v -0.937500 0.000000 0.937500
v -0.937500 -0.500000 0.687500
v -0.937500 -0.500000 0.937500
v 1.000000 1.500000 1.000000
v 1.000000 1.500000 -1.000000
v 1.000000 1.375000 1.000000
v 1.000000 1.375000 -1.000000
v -1.000000 1.500000 -1.000000
v -1.000000 1.500000 1.000000
v -1.000000 1.375000 -1.000000
v -1.000000 1.375000 1.000000
v -0.937500 1.000000 -0.375000
v -0.937500 1.000000 -0.625000
v -0.937500 0.750000 -0.375000
v -0.937500 0.750000 -0.625000
v -1.000000 1.000000 -0.625000
v -1.000000 1.000000 -0.375000
v -1.000000 0.750000 -0.625000
v -1.000000 0.750000 -0.375000
v -0.812500 1.375000 0.937500
v -0.812500 1.375000 -0.937500
v -0.812500 0.125000 0.937500
v -0.812500 0.125000 -0.937500
v -0.937500 1.375000 -0.937500
v -0.937500 1.375000 0.937500
v -0.937500 0.125000 -0.937500
v -0.937500 0.125000 0.937500
v 2.000000 0.000000 0.875000
v 2.000000 -0.000000 0.125000
v 2.000000 -1.000000 0.875000
v 2.000000 -1.000000 0.125000
v 1.875000 -0.000000 0.125000
v 1.875000 0.000000 0.875000
v 1.875000 -1.000000 0.125000
v 1.875000 -1.000000 0.875000
v 0.000000 1.000000 2.000000
v 0.000000 1.000000 1.000000
v 0.000000 0.000000 2.000000
v 0.000000 0.000000 1.000000
v -1.000000 1.000000 1.000000
v -1.000000 1.000000 2.000000
v -1.000000 0.000000 1.000000
v -1.000000 0.000000 2.000000
v 2.000000 0.000000 1.000000
v 2.000000 -1.000000 1.000000
v 1.000000 0.000000 0.875000
v 1.000000 0.000000 1.000000
v 1.000000 -1.000000 0.875000
v 1.000000 -1.000000 1.000000
v 2.000000 -0.000000 0.000000
v 2.000000 -1.000000 0.000000
v 1.000000 -0.000000 0.000000
v 1.000000 -0.000000 0.125000
v 1.000000 -1.000000 0.000000
v 1.000000 -1.000000 0.125000
v 0.000000 -0.500000 2.000000
v 0.000000 -0.500000 1.000000
v -1.000000 -0.500000 1.000000
v -1.000000 -0.500000 2.000000
v 1.125000 0.000000 0.875000
v 1.125000 -0.000000 0.125000
v 1.125000 -1.000000 0.875000
v 1.125000 -1.000000 0.125000
v 2.000000 1.000000 2.000000
v 2.000000 1.000000 1.500000
v 2.000000 0.000000 2.000000
v 2.000000 0.000000 1.500000
v 1.000000 1.000000 1.500000
v 1.000000 1.000000 2.000000
v 1.000000 0.000000 1.500000
v 1.000000 0.000000 2.000000
v 1.250000 0.000000 1.875000
v 1.250000 0.000000 1.625000
v 1.250000 -0.500000 1.875000
v 1.250000 -0.500000 1.625000
v 1.125000 0.000000 1.625000
v 1.125000 0.000000 1.875000
v 1.125000 -0.500000 1.625000
v 1.125000 -0.500000 1.875000
v 1.875000 -0.875000 0.875000
v 1.875000 -0.875000 0.125000
v 1.125000 -0.875000 0.125000
v 1.125000 -0.875000 0.875000
v 1.000000 -0.500000 2.000000
v 1.000000 -0.500000 -1.000000
v 1.000000 -1.000000 2.000000
v 1.000000 -1.000000 -1.000000
v -1.000000 -0.500000 -1.000000
v -1.000000 -1.000000 -1.000000
v -1.000000 -1.000000 2.000000
v 2.000000 -0.500000 0.000000
v 2.000000 -0.500000 -1.000000
v 2.000000 -1.000000 -1.000000
v 1.000000 -0.500000 0.000000
v 0.937500 1.375000 0.937500
v 0.937500 1.375000 -0.937500
v 0.937500 0.125000 0.937500
v 0.937500 0.125000 -0.937500
v 0.812500 1.375000 -0.937500
v 0.812500 1.375000 0.937500
v 0.812500 0.125000 -0.937500
v 0.812500 0.125000 0.937500
v 0.812500 1.375000 -0.812500
v 0.812500 0.125000 -0.812500
v -0.812500 1.375000 -0.812500
v -0.812500 0.125000 -0.812500
v 0.812500 1.375000 0.812500
v 0.812500 0.125000 0.812500
v -0.812500 1.375000 0.812500
v -0.812500 0.125000 0.812500
v 2.000000 -0.500000 2.000000
v 2.000000 -0.500000 1.000000
v 2.000000 -1.000000 2.000000
v 1.000000 -0.500000 1.000000
v 1.875000 0.000000 1.875000
v 1.875000 0.000000 1.625000
v 1.875000 -0.500000 1.875000
v 1.875000 -0.500000 1.625000
v 1.750000 0.000000 1.625000
v 1.750000 0.000000 1.875000
v 1.750000 -0.500000 1.625000
v 1.750000 -0.500000 1.875000
v 0.812500 0.187500 0.812500
v 0.812500 0.187500 -0.812500
v -0.812500 0.187500 -0.812500
v -0.812500 0.187500 0.812500
v 1.562500 0.687500 0.625000
v 1.562500 0.687500 0.375000
v 1.562500 0.437500 0.625000
v 1.562500 0.437500 0.375000
v 1.000000 0.687500 0.375000
v 1.000000 0.687500 0.625000
v 1.000000 0.437500 0.375000
v 1.000000 0.437500 0.625000
v 1.312500 0.750000 0.562500
v 1.312500 0.750000 0.437500
v 1.312500 0.687500 0.562500
v 1.312500 0.687500 0.437500
v 1.187500 0.750000 0.437500
v 1.187500 0.750000 0.562500
v 1.187500 0.687500 0.437500
v 1.187500 0.687500 0.562500
v 1.562500 0.500000 0.625000
v 1.562500 0.500000 0.375000
v 1.562500 0.250000 0.625000
v 1.562500 0.250000 0.375000
v 1.312500 0.500000 0.375000
v 1.312500 0.500000 0.625000
v 1.312500 0.250000 0.375000
v 1.312500 0.250000 0.625000
v 1.375000 0.812500 0.625000
v 1.375000 0.812500 0.375000
v 1.375000 0.750000 0.625000
v 1.375000 0.750000 0.375000
v 1.125000 0.812500 0.375000
v 1.125000 0.812500 0.625000
v 1.125000 0.750000 0.375000
v 1.125000 0.750000 0.625000
v 1.000000 0.812500 0.750000
v 1.000000 0.812500 0.250000
v 1.000000 0.312500 0.750000
v 1.000000 0.312500 0.250000
v 0.937500 0.812500 0.250000
v 0.937500 0.812500 0.750000
v 0.937500 0.312500 0.250000
v 0.937500 0.312500 0.750000
v 1.000000 0.125000 1.000000
v 1.000000 0.125000 -1.000000
v 1.000000 -0.000000 -1.000000
v -1.000000 0.125000 -1.000000
v -1.000000 0.125000 1.000000
v -1.000000 -0.000000 -1.000000
v 0.312500 1.625000 0.062500
v 0.312500 1.625000 -0.062500
v 0.312500 1.500000 0.062500
v 0.312500 1.500000 -0.062500
v 0.187500 1.625000 -0.062500
v 0.187500 1.625000 0.062500
v 0.187500 1.500000 -0.062500
v 0.187500 1.500000 0.062500
v -0.187500 1.625000 0.062500
v -0.187500 1.625000 -0.062500
v -0.187500 1.500000 0.062500
v -0.187500 1.500000 -0.062500
v -0.312500 1.625000 -0.062500
v -0.312500 1.625000 0.062500
v -0.312500 1.500000 -0.062500
v -0.312500 1.500000 0.062500
v 0.312500 1.750000 0.062500
v 0.312500 1.750000 -0.062500
v -0.312500 1.750000 -0.062500
v -0.312500 1.750000 0.062500
v -0.375000 1.000000 -0.937500
v -0.375000 1.000000 -1.000000
v -0.375000 0.750000 -0.937500
v -0.375000 0.750000 -1.000000
v -0.625000 1.000000 -1.000000
v -0.625000 1.000000 -0.937500
v -0.625000 0.750000 -1.000000
v -0.625000 0.750000 -0.937500
v -0.250000 0.687500 -0.937500
v -0.250000 0.687500 -1.000000
v -0.250000 0.187500 -0.937500
v -0.250000 0.187500 -1.000000
v -0.750000 0.687500 -1.000000
v -0.750000 0.687500 -0.937500
v -0.750000 0.187500 -1.000000
v -0.750000 0.187500 -0.937500
v -0.937500 0.687500 -0.250000
v -0.937500 0.687500 -0.750000
v -0.937500 0.187500 -0.250000
v -0.937500 0.187500 -0.750000
v -1.000000 0.687500 -0.750000
v -1.000000 0.687500 -0.250000
v -1.000000 0.187500 -0.750000
v -1.000000 0.187500 -0.250000
vt 0.687500 0.937500
vt 0.843750 0.937500
vt 0.843750 1.000000
vt 0.687500 1.000000
vt 0.843750 0.843750
vt 1.000000 0.843750
vt 1.000000 1.000000
vt 0.500000 0.656250
vt 0.531250 0.656250
vt 0.531250 0.734375
vt 0.500000 0.734375
vt 0.140625 0.898438
vt 0.156250 0.898438
vt 0.156250 0.914062
vt 0.140625 0.914062
vt 0.140625 0.867188
vt 0.156250 0.867188
vt 0.156250 0.882812
vt 0.140625 0.882812
vt 0.062500 0.742188
vt 0.078125 0.742188
vt 0.078125 0.757812
vt 0.062500 0.757812
vt 0.281250 0.593750
vt 0.531250 0.593750
vt 0.531250 0.609375
vt 0.281250 0.609375
vt 0.531250 0.843750
vt 0.281250 0.843750
vt 0.382812 0.585938
vt 0.390625 0.585938
vt 0.390625 0.617188
vt 0.382812 0.617188
vt 0.421875 0.585938
vt 0.429688 0.585938
vt 0.429688 0.617188
vt 0.421875 0.617188
vt 0.421875 0.625000
vt 0.390625 0.625000
vt 0.390625 0.578125
vt 0.421875 0.578125
vt 0.984375 0.687500
vt 1.000000 0.687500
vt 0.984375 0.843750
vt 0.765625 0.687500
vt 0.765625 0.843750
vt 0.781250 0.687500
vt 0.781250 0.843750
vt 0.546875 0.609375
vt 0.546875 0.843750
vt 0.234375 0.609375
vt 0.242188 0.609375
vt 0.242188 0.726562
vt 0.234375 0.726562
vt 0.039062 0.398438
vt 0.046875 0.398438
vt 0.046875 0.460938
vt 0.039062 0.460938
vt 0.453125 0.875000
vt 0.546875 0.875000
vt 0.546875 1.000000
vt 0.453125 1.000000
vt 0.054688 0.398438
vt 0.054688 0.460938
vt 0.578125 0.875000
vt 0.671875 0.875000
vt 0.671875 1.000000
vt 0.578125 1.000000
vt 0.671875 0.890625
vt 0.687500 0.890625
vt 0.687500 0.984375
vt 0.671875 0.984375
vt 0.000000 0.250000
vt 0.125000 0.250000
vt 0.125000 0.375000
vt 0.000000 0.375000
vt 0.375000 0.250000
vt 0.500000 0.250000
vt 0.500000 0.375000
vt 0.375000 0.375000
vt 0.250000 0.250000
vt 0.250000 0.375000
vt 0.125000 0.500000
vt 0.000000 0.500000
vt 0.878906 0.300781
vt 0.941406 0.300781
vt 0.941406 0.363281
vt 0.878906 0.363281
vt 0.562500 0.875000
vt 0.687500 0.875000
vt 0.562500 1.000000
vt 0.437500 0.875000
vt 0.437500 1.000000
vt 0.562500 0.890625
vt 0.562500 0.984375
vt 0.000000 0.187500
vt 0.125000 0.187500
vt 0.250000 0.187500
vt 0.375000 0.187500
vt 0.500000 0.187500
vt 0.855469 0.203125
vt 0.917969 0.203125
vt 0.917969 0.265625
vt 0.855469 0.265625
vt 0.824219 0.214844
vt 0.886719 0.214844
vt 0.886719 0.277344
vt 0.824219 0.277344
vt 0.578125 0.890625
vt 0.578125 0.984375
vt 0.875000 0.125000
vt 1.000000 0.125000
vt 1.000000 0.250000
vt 0.875000 0.250000
vt 0.937500 0.125000
vt 0.937500 0.250000
vt 0.750000 0.500000
vt 0.875000 0.500000
vt 0.875000 0.625000
vt 0.750000 0.625000
vt 0.875000 0.187500
vt 1.000000 0.187500
vt 0.656250 0.343750
vt 0.671875 0.343750
vt 0.671875 0.406250
vt 0.656250 0.406250
vt 0.640625 0.343750
vt 0.640625 0.406250
vt 0.765625 0.226562
vt 0.773438 0.226562
vt 0.773438 0.242188
vt 0.765625 0.242188
vt 0.765625 0.257812
vt 0.773438 0.257812
vt 0.773438 0.273438
vt 0.765625 0.273438
vt 0.000000 0.460938
vt 0.046875 0.468750
vt 0.000000 0.468750
vt 0.023438 0.460938
vt 0.070312 0.460938
vt 0.070312 0.468750
vt 0.023438 0.468750
vt 0.152344 0.531250
vt 0.199219 0.531250
vt 0.199219 0.539062
vt 0.152344 0.539062
vt 0.167969 0.476562
vt 0.214844 0.476562
vt 0.214844 0.484375
vt 0.167969 0.484375
vt 0.125000 0.062500
vt 0.375000 0.062500
vt 0.375000 0.125000
vt 0.125000 0.125000
vt 0.000000 0.062500
vt 0.000000 0.125000
vt 0.250000 0.062500
vt 0.250000 0.125000
vt 0.625000 0.625000
vt 0.875000 1.000000
vt 0.625000 1.000000
vt 0.625000 0.250000
vt 0.250000 0.000000
vt 0.375000 0.000000
vt 0.335938 0.320312
vt 0.398438 0.320312
vt 0.398438 0.351562
vt 0.335938 0.351562
vt 0.312500 0.343750
vt 0.375000 0.343750
vt 0.312500 0.375000
vt 0.875000 0.875000
vt 1.000000 0.875000
vt 1.000000 0.375000
vt 0.875000 0.375000
vt 0.750000 0.609375
vt 0.765625 0.609375
vt 0.750000 0.843750
vt 0.226562 0.921875
vt 0.234375 0.921875
vt 0.234375 1.000000
vt 0.226562 1.000000
vt 0.003906 0.921875
vt 0.011719 0.921875
vt 0.011719 1.000000
vt 0.003906 1.000000
vt 0.546875 0.625000
vt 0.183594 0.609375
vt 0.285156 0.609375
vt 0.285156 0.617188
vt 0.183594 0.617188
vt 0.546875 0.828125
vt 0.750000 0.828125
vt 0.328125 0.367188
vt 0.390625 0.367188
vt 0.390625 0.398438
vt 0.328125 0.398438
vt 0.000000 0.000000
vt 0.125000 0.000000
vt 0.382812 0.375000
vt 0.445312 0.375000
vt 0.445312 0.406250
vt 0.382812 0.406250
vt 1.000000 0.625000
vt 1.000000 0.750000
vt 0.875000 0.750000
vt 1.000000 0.500000
vt 0.621094 0.351562
vt 0.628906 0.351562
vt 0.628906 0.367188
vt 0.621094 0.367188
vt 0.718750 0.328125
vt 0.734375 0.328125
vt 0.734375 0.390625
vt 0.718750 0.390625
vt 0.003906 0.984375
vt 0.105469 0.984375
vt 0.105469 0.988281
vt 0.003906 0.988281
vt 0.007812 0.984375
vt 0.109375 0.984375
vt 0.109375 0.988281
vt 0.007812 0.988281
vt 0.011719 0.984375
vt 0.113281 0.984375
vt 0.113281 0.988281
vt 0.011719 0.988281
vt 0.343750 0.968750
vt 0.406250 0.968750
vt 0.406250 1.000000
vt 0.343750 1.000000
vt 0.437500 0.968750
vt 0.296875 0.898438
vt 0.312500 0.898438
vt 0.312500 0.914062
vt 0.296875 0.914062
vt 0.406250 0.976562
vt 0.421875 0.976562
vt 0.421875 0.968750
vt 0.187500 0.957031
vt 0.195312 0.957031
vt 0.195312 0.964844
vt 0.187500 0.964844
vt 0.406250 0.937500
vt 0.437500 0.937500
vt 0.437500 0.976562
vt 0.398438 0.906250
vt 0.406250 0.906250
vt 0.398438 0.968750
vt 0.468750 0.906250
vt 0.468750 0.968750
vt 0.476562 0.906250
vt 0.476562 0.968750
vt 0.750000 0.734375
vt 0.750000 0.750000
vt 0.500000 0.750000
vt 0.750000 1.000000
vt 0.500000 1.000000
vt 0.000000 0.992188
vt 0.007812 0.992188
vt 0.007812 1.000000
vt 0.000000 1.000000
vt 0.039062 0.992188
vt 0.039062 1.000000
vt 0.422656 0.585938
vt 0.422656 0.616406
vt 0.390625 0.616406
vt 0.386719 0.578125
vt 0.425781 0.578125
vt 0.425781 0.585938
vt 0.386719 0.585938
vt 0.382812 0.507812
vt 0.445312 0.507812
vt 0.445312 0.570312
vt 0.382812 0.570312
vt 0.375000 0.507812
vt 0.375000 0.570312
vt 0.453125 0.507812
vt 0.453125 0.570312
vt 0.445312 0.578125
vt 0.382812 0.578125
vt 0.382812 0.500000
vt 0.445312 0.500000
vn -0.0000 -0.0000 -1.0000
vn 1.0000 -0.0000 -0.0000
vn -0.0000 -0.0000 1.0000
vn -1.0000 -0.0000 -0.0000
vn -0.0000 1.0000 -0.0000
vn -0.0000 -1.0000 -0.0000
usemtl m_22778df7-5533-224e-dee0-912e3a1ffbcf
f 4/1/1 7/2/1 5/3/1 2/4/1
f 3/1/2 4/2/2 2/3/2 1/4/2
f 8/1/3 3/2/3 1/3/3 6/4/3
f 7/1/4 8/2/4 6/3/4 5/4/4
f 6/5/5 1/6/5 2/7/5 5/3/5
f 7/5/6 4/6/6 3/7/6 8/3/6
f 44/24/1 47/25/1 45/26/1 42/27/1
f 43/24/2 44/25/2 42/26/2 41/27/2
f 48/24/3 43/25/3 41/26/3 46/27/3
f 47/24/4 48/25/4 46/26/4 45/27/4
f 46/24/5 41/25/5 42/28/5 45/29/5
f 47/24/6 44/25/6 43/28/6 48/29/6
f 60/42/1 63/43/1 61/6/1 58/44/1
f 59/45/2 60/43/2 58/6/2 57/46/2
f 64/45/3 59/47/3 57/48/3 62/46/3
f 63/45/4 64/43/4 62/6/4 61/46/4
f 62/26/5 57/49/5 58/50/5 61/28/5
f 63/51/6 60/52/6 59/53/6 64/54/6
f 68/55/1 71/56/1 69/57/1 66/58/1
f 67/59/2 68/60/2 66/61/2 65/62/2
f 72/55/3 67/63/3 65/64/3 70/58/3
f 71/65/4 72/66/4 70/67/4 69/68/4
f 70/69/5 65/70/5 66/71/5 69/72/5
f 71/69/6 68/70/6 67/71/6 72/72/6
f 67/89/1 85/90/1 83/4/1 65/91/1
f 82/92/2 67/59/2 65/62/2 81/93/2
f 86/89/3 82/90/3 81/4/3 84/91/3
f 85/66/4 86/90/4 84/4/4 83/67/4
f 84/89/5 81/90/5 65/70/5 83/94/5
f 85/95/6 67/71/6 82/4/6 86/91/6
f 88/89/1 91/90/1 89/4/1 87/91/1
f 68/60/2 88/89/2 87/91/2 66/61/2
f 92/89/3 68/90/3 66/4/3 90/91/3
f 91/89/4 92/65/4 90/68/4 89/91/4
f 90/91/5 66/4/5 87/71/5 89/95/5
f 91/89/6 88/90/6 68/70/6 92/94/6
f 100/55/1 92/63/1 90/64/1 98/58/1
f 99/65/2 100/66/2 98/67/2 97/68/2
f 85/55/3 99/56/3 97/57/3 83/58/3
f 92/65/4 85/66/4 83/67/4 90/68/4
f 83/94/5 97/109/5 98/110/5 90/95/5
f 92/94/6 100/109/6 99/110/6 85/95/6
f 71/137/1 100/57/1 119/138/1 118/139/1
f 72/140/2 71/141/2 118/142/2 117/143/2
f 99/144/3 72/145/3 117/146/3 120/147/3
f 100/148/4 99/149/4 120/150/4 119/151/4
f 120/109/5 117/69/5 118/72/5 119/110/5
f 100/109/6 71/69/6 72/72/6 99/110/6
f 135/45/1 138/47/1 136/48/1 133/46/1
f 134/45/2 135/43/2 133/6/2 132/46/2
f 139/42/3 134/43/3 132/6/3 137/44/3
f 138/45/4 139/43/4 137/6/4 136/46/4
f 137/177/5 132/178/5 133/46/5 136/179/5
f 138/51/6 135/52/6 134/53/6 139/54/6
f 138/47/1 60/42/1 58/44/1 136/48/1
f 141/180/2 138/181/2 136/182/2 140/183/2
f 143/47/3 141/42/3 140/44/3 142/48/3
f 60/184/4 143/185/4 142/186/4 58/187/4
f 142/49/5 140/177/5 136/120/5 58/188/5
f 60/189/6 138/190/6 141/191/6 143/192/6
f 145/47/1 147/42/1 146/44/1 144/48/1
f 139/180/2 145/181/2 144/182/2 137/183/2
f 59/47/3 139/42/3 137/44/3 57/48/3
f 147/184/4 59/185/4 57/186/4 146/187/4
f 57/193/5 137/194/5 144/179/5 146/50/5
f 147/189/6 145/190/6 139/191/6 59/192/6
f 141/217/1 143/218/1 162/219/1 161/220/1
f 145/221/2 141/222/2 161/223/2 160/224/2
f 147/225/3 145/226/3 160/227/3 163/228/3
f 143/225/4 147/226/4 163/227/4 162/228/4
f 163/188/5 160/120/5 161/194/5 162/193/5
f 143/188/6 141/120/6 145/194/6 147/193/6
f 167/229/1 170/230/1 168/231/1 165/232/1
f 166/230/2 167/233/2 165/93/2 164/231/2
f 171/229/3 166/230/3 164/231/3 169/232/3
f 170/234/4 171/235/4 169/236/4 168/237/4
f 169/229/5 164/230/5 165/231/5 168/232/5
f 170/229/6 167/230/6 166/231/6 171/232/6
f 175/238/1 178/239/1 176/240/1 173/230/1
f 174/238/2 175/239/2 173/240/2 172/230/2
f 179/238/3 174/239/3 172/240/3 177/230/3
f 178/238/4 179/239/4 177/240/4 176/230/4
f 177/241/5 172/242/5 173/243/5 176/244/5
f 178/241/6 175/242/6 174/243/6 179/244/6
f 183/230/1 186/233/1 184/93/1 181/231/1
f 182/230/2 183/233/2 181/93/2 180/231/2
f 187/230/3 182/233/3 180/93/3 185/231/3
f 186/230/4 187/233/4 185/93/4 184/231/4
f 185/230/5 180/233/5 181/93/5 184/231/5
f 186/245/6 183/246/6 182/233/6 187/230/6
f 191/230/1 194/233/1 192/247/1 189/238/1
f 190/230/2 191/233/2 189/247/2 188/238/2
f 195/230/3 190/233/3 188/247/3 193/238/3
f 194/230/4 195/233/4 193/247/4 192/238/4
f 193/230/5 188/233/5 189/93/5 192/231/5
f 194/230/6 191/233/6 190/93/6 195/231/6
usemtl m_782eb0aa-5cc2-1557-d681-881ca9c8f77b
f 12/8/1 15/9/1 13/10/1 10/11/1
f 11/8/2 12/9/2 10/10/2 9/11/2
f 16/8/3 11/9/3 9/10/3 14/11/3
f 15/8/4 16/9/4 14/10/4 13/11/4
f 14/12/5 9/13/5 10/14/5 13/15/5
f 15/16/6 12/17/6 11/18/6 16/19/6
f 20/8/1 23/9/1 21/10/1 18/11/1
f 19/8/2 20/9/2 18/10/2 17/11/2
f 24/8/3 19/9/3 17/10/3 22/11/3
f 23/8/4 24/9/4 22/10/4 21/11/4
f 22/12/5 17/13/5 18/14/5 21/15/5
f 23/16/6 20/17/6 19/18/6 24/19/6
f 28/8/1 31/9/1 29/10/1 26/11/1
f 27/8/2 28/9/2 26/10/2 25/11/2
f 32/8/3 27/9/3 25/10/3 30/11/3
f 31/8/4 32/9/4 30/10/4 29/11/4
f 30/12/5 25/13/5 26/14/5 29/15/5
f 31/16/6 28/17/6 27/18/6 32/19/6
f 36/8/1 39/9/1 37/10/1 34/11/1
f 35/8/2 36/9/2 34/10/2 33/11/2
f 40/8/3 35/9/3 33/10/3 38/11/3
f 39/8/4 40/9/4 38/10/4 37/11/4
f 38/20/5 33/21/5 34/22/5 37/23/5
f 39/16/6 36/17/6 35/18/6 40/19/6
f 52/30/1 55/31/1 53/32/1 50/33/1
f 56/34/3 51/35/3 49/36/3 54/37/3
f 55/31/4 56/34/4 54/37/4 53/32/4
f 54/32/5 49/37/5 50/38/5 53/39/5
f 55/40/6 52/41/6 51/34/6 56/31/6
f 76/73/1 79/74/1 77/75/1 74/76/1
f 75/73/2 76/74/2 74/75/2 73/76/2
f 80/77/3 75/78/3 73/79/3 78/80/3
f 79/74/4 80/81/4 78/82/4 77/75/4
f 78/76/5 73/75/5 74/83/5 77/84/5
f 79/85/6 76/86/6 75/87/6 80/88/6
f 94/96/1 95/97/1 79/74/1 76/73/1
f 93/98/2 94/99/2 76/77/2 75/81/2
f 96/99/3 93/100/3 75/78/3 80/77/3
f 95/97/4 96/98/4 80/81/4 79/74/4
f 80/101/5 75/102/5 76/103/5 79/104/5
f 95/105/6 94/106/6 93/107/6 96/108/6
f 108/117/3 103/118/3 101/119/3 106/120/3
f 112/123/1 115/124/1 113/125/1 110/126/1
f 111/127/2 112/124/2 110/125/2 109/128/2
f 116/123/3 111/127/3 109/128/3 114/126/3
f 115/127/4 116/124/4 114/125/4 113/128/4
f 114/129/5 109/130/5 110/131/5 113/132/5
f 115/133/6 112/134/6 111/135/6 116/136/6
f 155/123/1 158/124/1 156/125/1 153/126/1
f 154/127/2 155/124/2 153/125/2 152/128/2
f 159/127/3 154/123/3 152/126/3 157/128/3
f 158/127/4 159/124/4 157/125/4 156/128/4
f 157/209/5 152/210/5 153/211/5 156/212/5
f 158/213/6 155/214/6 154/215/6 159/216/6
f 199/248/1 202/249/1 200/230/1 197/250/1
f 198/249/2 199/251/2 197/252/2 196/230/2
f 203/250/3 198/230/3 196/249/3 201/248/3
f 201/251/5 196/253/5 197/254/5 200/252/5
f 202/251/6 199/253/6 198/254/6 203/252/6
f 206/11/1 209/255/1 207/256/1 205/257/1
f 84/11/2 206/255/2 205/256/2 204/257/2
f 79/11/3 84/255/3 204/256/3 208/257/3
f 209/11/4 79/255/4 208/256/4 207/257/4
f 208/257/5 204/256/5 205/258/5 207/259/5
f 209/257/6 206/256/6 84/258/6 79/259/6
f 206/11/1 209/255/1 207/256/1 205/257/1
f 84/11/2 206/255/2 205/256/2 204/257/2
f 79/11/3 84/255/3 204/256/3 208/257/3
f 209/11/4 79/255/4 208/256/4 207/257/4
f 208/257/5 204/256/5 205/258/5 207/259/5
f 209/257/6 206/256/6 84/258/6 79/259/6
f 213/260/1 216/261/1 214/262/1 211/263/1
f 212/260/2 213/261/2 211/262/2 210/263/2
f 217/260/3 212/261/3 210/262/3 215/263/3
f 216/260/4 217/261/4 215/262/4 214/263/4
f 215/260/5 210/261/5 211/262/5 214/263/5
f 216/260/6 213/261/6 212/262/6 217/263/6
f 221/260/1 224/261/1 222/262/1 219/263/1
f 220/260/2 221/261/2 219/262/2 218/263/2
f 225/260/3 220/261/3 218/262/3 223/263/3
f 224/260/4 225/261/4 223/262/4 222/263/4
f 223/260/5 218/261/5 219/262/5 222/263/5
f 224/260/6 221/261/6 220/262/6 225/263/6
f 211/260/1 222/264/1 228/265/1 227/263/1
f 210/260/2 211/261/2 227/262/2 226/263/2
f 223/260/3 210/264/3 226/265/3 229/263/3
f 222/260/4 223/261/4 229/262/4 228/263/4
f 229/260/5 226/264/5 227/265/5 228/263/5
f 222/260/6 211/264/6 210/265/6 223/263/6
f 233/31/1 236/266/1 234/267/1 231/268/1
f 232/30/2 233/31/2 231/32/2 230/33/2
f 236/184/4 237/185/4 235/186/4 234/187/4
f 235/32/5 230/37/5 231/38/5 234/39/5
f 236/269/6 233/270/6 232/271/6 237/272/6
f 241/273/1 244/274/1 242/275/1 239/276/1
f 240/277/2 241/273/2 239/276/2 238/278/2
f 244/279/4 245/274/4 243/275/4 242/280/4
f 243/276/5 238/275/5 239/281/5 242/282/5
f 244/274/6 241/273/6 240/283/6 245/284/6
f 249/277/1 252/273/1 250/276/1 247/278/1
f 253/274/3 248/279/3 246/280/3 251/275/3
f 252/273/4 253/274/4 251/275/4 250/276/4
f 251/277/5 246/273/5 247/276/5 250/278/5
f 252/280/6 249/275/6 248/274/6 253/279/6
f 233/31/1 236/266/1 234/267/1 231/268/1
f 232/30/2 233/31/2 231/32/2 230/33/2
f 237/47/3 232/42/3 230/44/3 235/48/3
f 236/184/4 237/185/4 235/186/4 234/187/4
f 235/32/5 230/37/5 231/38/5 234/39/5
f 236/269/6 233/270/6 232/271/6 237/272/6
usemtl m_1ad2ec67-72f7-1384-ba00-2df0bb66a7f6
f 104/111/1 107/112/1 105/113/1 102/114/1
f 103/115/2 104/112/2 102/113/2 101/116/2
f 107/111/4 108/115/4 106/116/4 105/114/4
f 106/121/5 101/122/5 102/113/5 105/114/5
f 107/111/6 104/112/6 103/122/6 108/121/6
f 124/152/1 126/153/1 125/154/1 122/155/1
f 123/156/2 124/153/2 122/154/2 121/157/2
f 127/156/3 123/158/3 121/159/3 96/157/3
f 126/156/4 127/153/4 96/154/4 125/157/4
f 96/160/5 121/119/5 122/161/5 125/162/5
f 126/163/6 124/114/6 123/119/6 127/160/6
f 130/156/1 124/152/1 122/155/1 129/157/1
f 88/164/2 130/165/2 129/153/2 128/158/2
f 91/166/3 88/167/3 128/168/3 131/169/3
f 124/170/4 91/171/4 131/80/4 122/172/4
f 131/173/5 128/174/5 129/7/5 122/161/5
f 124/114/6 130/113/6 88/175/6 91/176/6
f 82/195/1 86/196/1 151/197/1 149/198/1
f 150/199/2 82/200/2 149/152/2 148/156/2
f 123/164/3 150/165/3 148/153/3 121/158/3
f 86/201/4 123/202/4 121/203/4 151/204/4
f 121/119/5 148/205/5 149/206/5 151/207/5
f 86/118/6 82/208/6 150/205/6 123/119/6
