# Blender 5.0.1
# www.blender.org
mtllib food_fermenter.mtl

o base
v 2.000000 0.000000 1.000000
v 2.000000 -0.000000 0.000000
v 2.000000 -0.500000 1.000000
v 2.000000 -0.500000 0.000000
v 1.000000 -0.000000 0.000000
v 1.000000 0.000000 1.000000
v 1.000000 -0.500000 0.000000
v 1.000000 -0.500000 1.000000
v 0.000000 1.000000 2.000000
v 0.000000 1.000000 1.000000
v 0.000000 0.000000 2.000000
v 0.000000 0.000000 1.000000
v -1.000000 1.000000 1.000000
v -1.000000 1.000000 2.000000
v -1.000000 0.000000 1.000000
v -1.000000 0.000000 2.000000
v 0.000000 -0.500000 2.000000
v 0.000000 -0.500000 1.000000
v -1.000000 -0.500000 1.000000
v -1.000000 -0.500000 2.000000
v 2.000000 1.000000 2.000000
v 2.000000 1.000000 1.500000
v 2.000000 0.000000 2.000000
v 2.000000 0.000000 1.500000
v 1.000000 1.000000 1.500000
v 1.000000 1.000000 2.000000
v 1.000000 0.000000 1.500000
v 1.000000 0.000000 2.000000
v 1.250000 0.000000 1.875000
v 1.250000 0.000000 1.625000
v 1.250000 -0.500000 1.875000
v 1.250000 -0.500000 1.625000
v 1.125000 0.000000 1.625000
v 1.125000 0.000000 1.875000
v 1.125000 -0.500000 1.625000
v 1.125000 -0.500000 1.875000
v 1.875000 0.000000 1.875000
v 1.875000 0.000000 1.625000
v 1.875000 -0.500000 1.875000
v 1.875000 -0.500000 1.625000
v 1.750000 0.000000 1.625000
v 1.750000 0.000000 1.875000
v 1.750000 -0.500000 1.625000
v 1.750000 -0.500000 1.875000
v 1.000000 0.125000 1.000000
v 1.000000 0.125000 -1.000000
v 1.000000 -0.000000 -1.000000
v -1.000000 0.125000 -1.000000
v -1.000000 0.125000 1.000000
v -1.000000 -0.000000 -1.000000
v -0.687500 -0.000000 -0.687500
v -0.687500 -0.000000 -0.937500
v -0.687500 -0.500000 -0.687500
v -0.687500 -0.500000 -0.937500
v -0.937500 -0.000000 -0.937500
v -0.937500 -0.000000 -0.687500
v -0.937500 -0.500000 -0.937500
v -0.937500 -0.500000 -0.687500
v 0.937500 -0.000000 -0.687500
v 0.937500 -0.000000 -0.937500
v 0.937500 -0.500000 -0.687500
v 0.937500 -0.500000 -0.937500
v 0.687500 -0.000000 -0.937500
v 0.687500 -0.000000 -0.687500
v 0.687500 -0.500000 -0.937500
v 0.687500 -0.500000 -0.687500
v 0.937500 0.000000 0.937500
v 0.937500 0.000000 0.687500
v 0.937500 -0.500000 0.937500
v 0.937500 -0.500000 0.687500
v 0.687500 0.000000 0.687500
v 0.687500 0.000000 0.937500
v 0.687500 -0.500000 0.687500
v 0.687500 -0.500000 0.937500
v -0.687500 0.000000 0.937500
v -0.687500 0.000000 0.687500
v -0.687500 -0.500000 0.937500
v -0.687500 -0.500000 0.687500
v -0.937500 0.000000 0.687500
v -0.937500 0.000000 0.937500
v -0.937500 -0.500000 0.687500
v -0.937500 -0.500000 0.937500
v 0.937500 2.000000 0.937500
v 0.937500 2.000000 -0.937500
v 0.937500 0.125000 0.937500
v 0.937500 0.125000 -0.937500
v -0.937500 2.000000 -0.937500
v -0.937500 2.000000 0.937500
v -0.937500 0.125000 -0.937500
v -0.937500 0.125000 0.937500
v 1.625000 0.250000 0.625000
v 1.625000 0.250000 0.375000
v 1.625000 0.000000 0.625000
v 1.625000 -0.000000 0.375000
v 1.000000 0.250000 0.375000
v 1.000000 0.250000 0.625000
v 1.000000 -0.000000 0.375000
v 1.000000 0.000000 0.625000
v 1.250000 0.937500 0.625000
v 1.250000 0.937500 0.375000
v 1.250000 0.250000 0.625000
v 1.250000 0.250000 0.375000
v 1.000000 0.937500 0.375000
v 1.000000 0.937500 0.625000
v 1.000000 1.187500 0.125000
v 1.000000 1.187500 -0.125000
v 1.000000 0.937500 0.125000
v 1.000000 0.937500 -0.125000
v 0.937500 1.187500 -0.125000
v 0.937500 1.187500 0.125000
v 0.937500 0.937500 -0.125000
v 0.937500 0.937500 0.125000
v 1.250000 1.187500 0.625000
v 1.250000 1.187500 -0.125000
v 1.250000 0.937500 -0.125000
v 1.000000 1.187500 0.625000
v -0.375000 1.000000 -0.937500
v -0.375000 1.000000 -1.000000
v -0.375000 0.750000 -0.937500
v -0.375000 0.750000 -1.000000
v -0.625000 1.000000 -1.000000
v -0.625000 1.000000 -0.937500
v -0.625000 0.750000 -1.000000
v -0.625000 0.750000 -0.937500
v -0.250000 0.687500 -0.937500
v -0.250000 0.687500 -1.000000
v -0.250000 0.187500 -0.937500
v -0.250000 0.187500 -1.000000
v -0.750000 0.687500 -1.000000
v -0.750000 0.687500 -0.937500
v -0.750000 0.187500 -1.000000
v -0.750000 0.187500 -0.937500
v -0.937500 1.000000 -0.375000
v -0.937500 1.000000 -0.625000
v -0.937500 0.750000 -0.375000
v -0.937500 0.750000 -0.625000
v -1.000000 1.000000 -0.625000
v -1.000000 1.000000 -0.375000
v -1.000000 0.750000 -0.625000
v -1.000000 0.750000 -0.375000
v -0.937500 0.687500 -0.250000
v -0.937500 0.687500 -0.750000
v -0.937500 0.187500 -0.250000
v -0.937500 0.187500 -0.750000
v -1.000000 0.687500 -0.750000
v -1.000000 0.687500 -0.250000
v -1.000000 0.187500 -0.750000
v -1.000000 0.187500 -0.250000
v 2.000000 -0.500000 2.000000
v 2.000000 -0.500000 -1.000000
v 2.000000 -1.000000 2.000000
v 2.000000 -1.000000 -1.000000
v -1.000000 -0.500000 -1.000000
v -1.000000 -1.000000 -1.000000
v -1.000000 -1.000000 2.000000
v -0.937500 1.187500 0.625000
v -0.937500 1.187500 0.375000
v -0.937500 0.937500 0.625000
v -0.937500 0.937500 0.375000
v -1.000000 1.187500 0.375000
v -1.000000 1.187500 0.625000
v -1.000000 0.937500 0.375000
v -1.000000 0.937500 0.625000
v -0.937500 0.875000 0.875000
v -0.937500 0.875000 0.125000
v -0.937500 0.125000 0.875000
v -0.937500 0.125000 0.125000
v -1.000000 0.875000 0.125000
v -1.000000 0.875000 0.875000
v -1.000000 0.125000 0.125000
v -1.000000 0.125000 0.875000
vt 0.875000 0.187500
vt 1.000000 0.187500
vt 1.000000 0.250000
vt 0.875000 0.250000
vt 0.375000 0.937500
vt 0.500000 0.937500
vt 0.500000 1.000000
vt 0.375000 1.000000
vt 0.875000 0.125000
vt 1.000000 0.125000
vt 0.003906 0.937500
vt 0.066406 0.937500
vt 0.066406 1.000000
vt 0.003906 1.000000
vt 0.000000 0.250000
vt 0.125000 0.250000
vt 0.125000 0.375000
vt 0.000000 0.375000
vt 0.375000 0.250000
vt 0.500000 0.250000
vt 0.500000 0.375000
vt 0.375000 0.375000
vt 0.250000 0.250000
vt 0.250000 0.375000
vt 0.125000 0.500000
vt 0.000000 0.500000
vt 0.878906 0.300781
vt 0.941406 0.300781
vt 0.941406 0.363281
vt 0.878906 0.363281
vt 0.000000 0.187500
vt 0.125000 0.187500
vt 0.250000 0.187500
vt 0.375000 0.187500
vt 0.500000 0.187500
vt 0.855469 0.203125
vt 0.917969 0.203125
vt 0.917969 0.265625
vt 0.855469 0.265625
vt 0.824219 0.214844
vt 0.886719 0.214844
vt 0.886719 0.277344
vt 0.824219 0.277344
vt 0.937500 0.125000
vt 0.937500 0.250000
vt 0.750000 0.500000
vt 0.875000 0.500000
vt 0.875000 0.625000
vt 0.750000 0.625000
vt 0.656250 0.343750
vt 0.671875 0.343750
vt 0.671875 0.406250
vt 0.656250 0.406250
vt 0.640625 0.343750
vt 0.640625 0.406250
vt 0.765625 0.226562
vt 0.773438 0.226562
vt 0.773438 0.242188
vt 0.765625 0.242188
vt 0.765625 0.257812
vt 0.773438 0.257812
vt 0.773438 0.273438
vt 0.765625 0.273438
vt 0.621094 0.351562
vt 0.628906 0.351562
vt 0.628906 0.367188
vt 0.621094 0.367188
vt 0.726562 0.335938
vt 0.742188 0.335938
vt 0.742188 0.398438
vt 0.726562 0.398438
vt 0.500000 0.734375
vt 0.750000 0.734375
vt 0.750000 0.750000
vt 0.500000 0.750000
vt 0.750000 1.000000
vt 0.500000 0.656250
vt 0.531250 0.656250
vt 0.531250 0.734375
vt 0.140625 0.898438
vt 0.156250 0.898438
vt 0.156250 0.914062
vt 0.140625 0.914062
vt 0.140625 0.867188
vt 0.156250 0.867188
vt 0.156250 0.882812
vt 0.140625 0.882812
vt 0.062500 0.742188
vt 0.078125 0.742188
vt 0.078125 0.757812
vt 0.062500 0.757812
vt 0.000000 0.765625
vt 0.234375 0.765625
vt 0.234375 1.000000
vt 0.000000 1.000000
vt 0.468750 0.765625
vt 0.468750 1.000000
vt 0.703125 0.765625
vt 0.703125 1.000000
vt 0.703125 0.328125
vt 0.703125 0.406250
vt 0.671875 0.328125
vt 0.703125 0.359375
vt 0.671875 0.359375
vt 0.703125 0.414062
vt 0.671875 0.414062
vt 0.039062 0.984375
vt 0.042969 0.984375
vt 0.042969 1.000000
vt 0.039062 1.000000
vt 0.000000 0.984375
vt 0.015625 0.984375
vt 0.015625 1.000000
vt 0.003906 0.984375
vt 0.019531 0.984375
vt 0.019531 1.000000
vt 0.000000 0.980469
vt 0.003906 0.980469
vt 0.003906 0.996094
vt 0.000000 0.996094
vt 0.671875 0.578125
vt 0.703125 0.578125
vt 0.703125 0.609375
vt 0.671875 0.609375
vt 0.703125 0.421875
vt 0.671875 0.421875
vt 0.390625 0.585938
vt 0.422656 0.585938
vt 0.422656 0.616406
vt 0.390625 0.616406
vt 0.382812 0.585938
vt 0.390625 0.617188
vt 0.382812 0.617188
vt 0.003906 0.921875
vt 0.011719 0.921875
vt 0.011719 1.000000
vt 0.421875 0.617188
vt 0.421875 0.625000
vt 0.390625 0.625000
vt 0.386719 0.578125
vt 0.425781 0.578125
vt 0.425781 0.585938
vt 0.386719 0.585938
vt 0.382812 0.507812
vt 0.445312 0.507812
vt 0.445312 0.570312
vt 0.382812 0.570312
vt 0.375000 0.507812
vt 0.375000 0.570312
vt 0.453125 0.507812
vt 0.453125 0.570312
vt 0.445312 0.578125
vt 0.382812 0.578125
vt 0.382812 0.500000
vt 0.445312 0.500000
vt 0.421875 0.585938
vt 0.429688 0.585938
vt 0.429688 0.617188
vt 0.390625 0.578125
vt 0.421875 0.578125
vt 0.000000 0.062500
vt 0.375000 0.062500
vt 0.375000 0.125000
vt 0.000000 0.125000
vt 0.000000 0.000000
vt 0.375000 0.000000
vt 0.625000 0.625000
vt 1.000000 0.625000
vt 1.000000 1.000000
vt 0.625000 1.000000
vt 0.625000 0.250000
vt 0.390625 0.898438
vt 0.398438 0.898438
vt 0.398438 0.976562
vt 0.390625 0.976562
vt 0.476562 0.898438
vt 0.484375 0.898438
vt 0.484375 0.976562
vt 0.476562 0.976562
vn -0.0000 -0.0000 -1.0000
vn 1.0000 -0.0000 -0.0000
vn -0.0000 -0.0000 1.0000
vn -1.0000 -0.0000 -0.0000
vn -0.0000 1.0000 -0.0000
vn -0.0000 -1.0000 -0.0000
usemtl m_1ad2ec67-72f7-1384-ba00-2df0bb66a7f6
f 4/1/1 7/2/1 5/3/1 2/4/1
f 8/1/3 3/2/3 1/3/3 6/4/3
f 7/1/4 8/2/4 6/3/4 5/4/4
f 6/9/5 1/10/5 2/3/5 5/4/5
f 7/11/6 4/12/6 3/13/6 8/14/6
f 24/9/1 27/10/1 25/3/1 22/4/1
f 23/44/2 24/10/2 22/3/2 21/45/2
f 27/9/4 28/44/4 26/45/4 25/4/4
f 26/1/5 21/2/5 22/3/5 25/4/5
f 27/9/6 24/10/6 23/2/6 28/1/6
f 152/161/1 154/162/1 153/163/1 150/164/1
f 151/165/2 152/166/2 150/162/2 149/161/2
f 155/161/3 151/162/3 149/163/3 20/164/3
f 154/161/4 155/162/4 20/163/4 153/164/4
f 20/167/5 149/168/5 150/169/5 153/170/5
f 154/171/6 152/3/6 151/168/6 155/167/6
f 4/1/1 7/2/1 5/3/1 2/4/1
f 8/1/3 3/2/3 1/3/3 6/4/3
f 7/1/4 8/2/4 6/3/4 5/4/4
f 6/9/5 1/10/5 2/3/5 5/4/5
f 7/11/6 4/12/6 3/13/6 8/14/6
usemtl m_782eb0aa-5cc2-1557-d681-881ca9c8f77b
f 3/5/2 4/6/2 2/7/2 1/8/2
f 12/15/1 15/16/1 13/17/1 10/18/1
f 11/15/2 12/16/2 10/17/2 9/18/2
f 16/19/3 11/20/3 9/21/3 14/22/3
f 15/16/4 16/23/4 14/24/4 13/17/4
f 14/18/5 9/17/5 10/25/5 13/26/5
f 15/27/6 12/28/6 11/29/6 16/30/6
f 18/31/1 19/32/1 15/16/1 12/15/1
f 17/33/2 18/34/2 12/19/2 11/23/2
f 20/34/3 17/35/3 11/20/3 16/19/3
f 19/32/4 20/33/4 16/23/4 15/16/4
f 16/36/5 11/37/5 12/38/5 15/39/5
f 19/40/6 18/41/6 17/42/6 20/43/6
f 28/46/3 23/47/3 21/48/3 26/49/3
f 32/50/1 35/51/1 33/52/1 30/53/1
f 31/54/2 32/51/2 30/52/2 29/55/2
f 36/50/3 31/54/3 29/55/3 34/53/3
f 35/54/4 36/51/4 34/52/4 33/55/4
f 34/56/5 29/57/5 30/58/5 33/59/5
f 35/60/6 32/61/6 31/62/6 36/63/6
f 40/50/1 43/51/1 41/52/1 38/53/1
f 39/54/2 40/51/2 38/52/2 37/55/2
f 44/54/3 39/50/3 37/53/3 42/55/3
f 43/54/4 44/51/4 42/52/4 41/55/4
f 42/64/5 37/65/5 38/66/5 41/67/5
f 43/68/6 40/69/6 39/70/6 44/71/6
f 47/72/1 50/73/1 48/74/1 46/75/1
f 6/72/2 47/73/2 46/74/2 45/75/2
f 15/72/3 6/73/3 45/74/3 49/75/3
f 50/72/4 15/73/4 49/74/4 48/75/4
f 49/75/5 45/74/5 46/76/5 48/7/5
f 50/75/6 47/74/6 6/76/6 15/7/6
f 54/77/1 57/78/1 55/79/1 52/72/1
f 53/77/2 54/78/2 52/79/2 51/72/2
f 58/77/3 53/78/3 51/79/3 56/72/3
f 57/77/4 58/78/4 56/79/4 55/72/4
f 56/80/5 51/81/5 52/82/5 55/83/5
f 57/84/6 54/85/6 53/86/6 58/87/6
f 62/77/1 65/78/1 63/79/1 60/72/1
f 61/77/2 62/78/2 60/79/2 59/72/2
f 66/77/3 61/78/3 59/79/3 64/72/3
f 65/77/4 66/78/4 64/79/4 63/72/4
f 64/80/5 59/81/5 60/82/5 63/83/5
f 65/84/6 62/85/6 61/86/6 66/87/6
f 70/77/1 73/78/1 71/79/1 68/72/1
f 69/77/2 70/78/2 68/79/2 67/72/2
f 74/77/3 69/78/3 67/79/3 72/72/3
f 73/77/4 74/78/4 72/79/4 71/72/4
f 72/80/5 67/81/5 68/82/5 71/83/5
f 73/84/6 70/85/6 69/86/6 74/87/6
f 78/77/1 81/78/1 79/79/1 76/72/1
f 77/77/2 78/78/2 76/79/2 75/72/2
f 82/77/3 77/78/3 75/79/3 80/72/3
f 81/77/4 82/78/4 80/79/4 79/72/4
f 80/88/5 75/89/5 76/90/5 79/91/5
f 81/84/6 78/85/6 77/86/6 82/87/6
f 94/100/1 97/101/1 95/52/1 92/102/1
f 93/102/2 94/100/2 92/101/2 91/52/2
f 98/100/3 93/101/3 91/52/3 96/102/3
f 97/102/4 98/100/4 96/103/4 95/104/4
f 96/100/5 91/101/5 92/52/5 95/102/5
f 102/102/1 95/100/1 103/105/1 100/106/1
f 101/102/2 102/100/2 100/105/2 99/106/2
f 96/102/3 101/100/3 99/105/3 104/106/3
f 95/102/4 96/100/4 104/105/4 103/106/4
f 108/107/1 111/108/1 109/109/1 106/110/1
f 107/111/2 108/112/2 106/113/2 105/95/2
f 112/111/3 107/114/3 105/14/3 110/95/3
f 111/114/4 112/115/4 110/116/4 109/14/4
f 110/117/5 105/118/5 106/119/5 109/120/5
f 111/111/6 108/114/6 107/14/6 112/95/6
f 115/121/1 108/122/1 106/123/1 114/124/1
f 99/100/2 115/125/2 114/126/2 113/102/2
f 104/121/3 99/122/3 113/123/3 116/124/3
f 108/100/4 104/125/4 116/126/4 106/102/4
f 116/102/5 113/100/5 114/125/5 106/126/5
f 108/125/6 115/126/6 99/102/6 104/100/6
f 120/127/1 123/128/1 121/129/1 118/130/1
f 119/131/2 120/127/2 118/132/2 117/133/2
f 123/134/4 124/135/4 122/136/4 121/14/4
f 122/132/5 117/137/5 118/138/5 121/139/5
f 123/140/6 120/141/6 119/142/6 124/143/6
f 128/144/1 131/145/1 129/146/1 126/147/1
f 127/148/2 128/144/2 126/147/2 125/149/2
f 131/150/4 132/145/4 130/146/4 129/151/4
f 130/147/5 125/146/5 126/152/5 129/153/5
f 131/145/6 128/144/6 127/154/6 132/155/6
f 136/131/1 139/127/1 137/132/1 134/133/1
f 140/156/3 135/157/3 133/158/3 138/137/3
f 139/127/4 140/156/4 138/137/4 137/132/4
f 138/132/5 133/137/5 134/138/5 137/139/5
f 139/159/6 136/160/6 135/156/6 140/127/6
f 144/148/1 147/144/1 145/147/1 142/149/1
f 148/145/3 143/150/3 141/151/3 146/146/3
f 147/144/4 148/145/4 146/146/4 145/147/4
f 146/148/5 141/144/5 142/147/5 145/149/5
f 147/151/6 144/146/6 143/145/6 148/150/6
f 159/131/1 162/127/1 160/132/1 157/133/1
f 163/156/3 158/157/3 156/158/3 161/137/3
f 162/127/4 163/156/4 161/137/4 160/132/4
f 161/132/5 156/137/5 157/138/5 160/139/5
f 162/159/6 159/160/6 158/156/6 163/127/6
f 167/172/1 170/173/1 168/174/1 165/175/1
f 171/176/3 166/177/3 164/178/3 169/179/3
f 170/173/4 171/176/4 169/179/4 168/174/4
f 169/172/5 164/173/5 165/174/5 168/175/5
f 170/178/6 167/179/6 166/176/6 171/177/6
f 3/5/2 4/6/2 2/7/2 1/8/2
usemtl m_a1c48303-a332-6793-0543-1c8860e240a9
f 86/92/1 89/93/1 87/94/1 84/95/1
f 85/93/2 86/96/2 84/97/2 83/94/2
f 90/95/3 85/94/3 83/93/3 88/92/3
f 89/96/4 90/98/4 88/99/4 87/97/4
f 88/92/5 83/93/5 84/94/5 87/95/5
f 89/92/6 86/93/6 85/94/6 90/95/6
