# Blender 5.0.1
# www.blender.org
mtllib food_processor.mtl

o base
v 1.000000 0.000000 2.000000
v 1.000000 0.000000 1.000000
v 1.000000 -0.500000 2.000000
v 1.000000 -0.500000 1.000000
v 0.000000 0.000000 1.000000
v 0.000000 0.000000 2.000000
v 0.000000 -0.500000 1.000000
v 0.000000 -0.500000 2.000000
v 0.000000 1.000000 2.000000
v 0.000000 1.000000 1.000000
v -1.000000 1.000000 1.000000
v -1.000000 1.000000 2.000000
v -1.000000 0.000000 1.000000
v -1.000000 0.000000 2.000000
v -1.000000 -0.500000 1.000000
v -1.000000 -0.500000 2.000000
v 2.000000 1.000000 2.000000
v 2.000000 1.000000 1.500000
v 2.000000 0.000000 2.000000
v 2.000000 0.000000 1.500000
v 1.000000 1.000000 1.500000
v 1.000000 1.000000 2.000000
v 1.000000 0.000000 1.500000
v 1.250000 0.000000 1.875000
v 1.250000 0.000000 1.625000
v 1.250000 -0.500000 1.875000
v 1.250000 -0.500000 1.625000
v 1.125000 0.000000 1.625000
v 1.125000 0.000000 1.875000
v 1.125000 -0.500000 1.625000
v 1.125000 -0.500000 1.875000
v 1.875000 0.000000 1.875000
v 1.875000 0.000000 1.625000
v 1.875000 -0.500000 1.875000
v 1.875000 -0.500000 1.625000
v 1.750000 0.000000 1.625000
v 1.750000 0.000000 1.875000
v 1.750000 -0.500000 1.625000
v 1.750000 -0.500000 1.875000
v 2.000000 -0.500000 2.000000
v 2.000000 -0.500000 -1.000000
v 2.000000 -1.000000 2.000000
v 2.000000 -1.000000 -1.000000
v -1.000000 -0.500000 -1.000000
v -1.000000 -1.000000 -1.000000
v -1.000000 -1.000000 2.000000
v 0.000000 1.000000 -0.000000
v 0.000000 -0.500000 0.000000
v -1.000000 1.000000 -0.000000
v -1.000000 -0.500000 0.000000
v 0.312500 -0.000000 -0.687500
v 0.312500 -0.000000 -0.937500
v 0.312500 -0.500000 -0.687500
v 0.312500 -0.500000 -0.937500
v 0.062500 -0.000000 -0.937500
v 0.062500 -0.000000 -0.687500
v 0.062500 -0.500000 -0.937500
v 0.062500 -0.500000 -0.687500
v 0.312500 0.000000 0.937500
v 0.312500 0.000000 0.687500
v 0.312500 -0.500000 0.937500
v 0.312500 -0.500000 0.687500
v 0.062500 0.000000 0.687500
v 0.062500 0.000000 0.937500
v 0.062500 -0.500000 0.687500
v 0.062500 -0.500000 0.937500
v 1.937500 0.000000 0.937500
v 1.937500 0.000000 0.687500
v 1.937500 -0.500000 0.937500
v 1.937500 -0.500000 0.687500
v 1.687500 0.000000 0.687500
v 1.687500 0.000000 0.937500
v 1.687500 -0.500000 0.687500
v 1.687500 -0.500000 0.937500
v 1.937500 -0.000000 -0.687500
v 1.937500 -0.000000 -0.937500
v 1.937500 -0.500000 -0.687500
v 1.937500 -0.500000 -0.937500
v 1.687500 -0.000000 -0.937500
v 1.687500 -0.000000 -0.687500
v 1.687500 -0.500000 -0.937500
v 1.687500 -0.500000 -0.687500
v 1.812500 0.125000 0.812500
v 1.812500 0.125000 -0.812500
v 1.812500 0.000000 0.812500
v 1.812500 -0.000000 -0.812500
v 0.187500 0.125000 -0.812500
v 0.187500 0.125000 0.812500
v 0.187500 -0.000000 -0.812500
v 0.187500 0.000000 0.812500
v 1.937500 1.000000 0.937500
v 1.937500 1.000000 -0.937500
v 1.812500 1.000000 -0.937500
v 1.812500 1.000000 0.937500
v 1.812500 -0.000000 -0.937500
v 1.812500 0.000000 0.937500
v 0.187500 1.000000 0.937500
v 0.187500 1.000000 -0.937500
v 0.187500 0.000000 0.937500
v 0.187500 -0.000000 -0.937500
v 0.062500 1.000000 -0.937500
v 0.062500 1.000000 0.937500
v 1.812500 1.000000 0.812500
v 0.187500 1.000000 0.812500
v 1.812500 1.000000 -0.812500
v 0.187500 1.000000 -0.812500
v -0.360865 1.375000 0.560408
v -0.436041 1.375000 0.321979
v -0.360865 1.000000 0.560408
v -0.436041 1.000000 0.321979
v -0.734078 1.375000 0.415949
v -0.658901 1.375000 0.654378
v -0.734078 1.000000 0.415949
v -0.658901 1.000000 0.654378
v 0.712067 1.625000 0.222114
v 0.636890 1.625000 -0.016315
v 0.712067 1.375000 0.222114
v 0.636890 1.375000 -0.016315
v -0.734078 1.625000 0.415949
v -0.658901 1.625000 0.654378
v 0.655685 1.375000 0.043292
v 0.655685 1.000000 0.043292
v 0.636890 1.000000 -0.016315
v -0.417247 1.375000 0.381586
v -0.417247 1.000000 0.381586
v -0.122435 1.312500 0.485231
v -0.178818 1.312500 0.306409
v -0.122435 1.000000 0.485231
v -0.178818 1.000000 0.306409
v -0.417247 1.312500 0.381586
v -0.360865 1.312500 0.560408
v 0.712067 1.312500 0.222114
v 0.655685 1.312500 0.043292
v 0.712067 1.062500 0.222114
v 0.655685 1.062500 0.043292
v -0.178818 1.062500 0.306409
v -0.122435 1.062500 0.485231
v 1.364522 1.750000 0.212995
v 1.176581 1.750000 -0.383079
v 1.364522 1.000000 0.212995
v 1.176581 1.000000 -0.383078
v 0.580508 1.750000 -0.195137
v 0.768449 1.750000 0.400936
v 0.580508 1.000000 -0.195137
v 0.768449 1.000000 0.400936
v 0.062500 0.687500 -0.250000
v 0.062500 0.687500 -0.750000
v 0.062500 0.187500 -0.250000
v 0.062500 0.187500 -0.750000
v 0.000000 0.687500 -0.750000
v 0.000000 0.687500 -0.250000
v 0.000000 0.187500 -0.750000
v 0.000000 0.187500 -0.250000
v 0.062500 1.000000 -0.375000
v 0.062500 1.000000 -0.625000
v 0.062500 0.750000 -0.375000
v 0.062500 0.750000 -0.625000
v 0.000000 1.000000 -0.625000
v 0.000000 1.000000 -0.375000
v 0.000000 0.750000 -0.625000
v 0.000000 0.750000 -0.375000
v 0.625000 1.000000 -0.937500
v 0.625000 1.000000 -1.000000
v 0.625000 0.750000 -0.937500
v 0.625000 0.750000 -1.000000
v 0.375000 1.000000 -1.000000
v 0.375000 1.000000 -0.937500
v 0.375000 0.750000 -1.000000
v 0.375000 0.750000 -0.937500
v 0.750000 0.687500 -0.937500
v 0.750000 0.687500 -1.000000
v 0.750000 0.187500 -0.937500
v 0.750000 0.187500 -1.000000
v 0.250000 0.687500 -1.000000
v 0.250000 0.687500 -0.937500
v 0.250000 0.187500 -1.000000
v 0.250000 0.187500 -0.937500
vt 0.875000 0.187500
vt 1.000000 0.187500
vt 1.000000 0.250000
vt 0.875000 0.250000
vt 0.375000 0.687500
vt 0.500000 0.687500
vt 0.500000 0.750000
vt 0.375000 0.750000
vt 0.875000 0.125000
vt 1.000000 0.125000
vt 0.003906 0.937500
vt 0.066406 0.937500
vt 0.066406 1.000000
vt 0.003906 1.000000
vt 0.000000 0.687500
vt 0.125000 0.687500
vt 0.125000 0.812500
vt 0.000000 0.812500
vt 0.000000 0.250000
vt 0.125000 0.250000
vt 0.125000 0.375000
vt 0.000000 0.375000
vt 0.125000 0.750000
vt 0.250000 0.750000
vt 0.250000 0.875000
vt 0.125000 0.875000
vt 0.250000 1.000000
vt 0.125000 1.000000
vt 0.878906 0.300781
vt 0.941406 0.300781
vt 0.941406 0.363281
vt 0.878906 0.363281
vt 0.000000 0.625000
vt 0.125000 0.625000
vt 0.000000 0.187500
vt 0.125000 0.187500
vt 0.250000 0.687500
vt 0.855469 0.203125
vt 0.917969 0.203125
vt 0.917969 0.265625
vt 0.855469 0.265625
vt 0.824219 0.214844
vt 0.886719 0.214844
vt 0.886719 0.277344
vt 0.824219 0.277344
vt 0.937500 0.125000
vt 0.937500 0.250000
vt 0.750000 0.500000
vt 0.875000 0.500000
vt 0.875000 0.625000
vt 0.750000 0.625000
vt 0.656250 0.343750
vt 0.671875 0.343750
vt 0.671875 0.406250
vt 0.656250 0.406250
vt 0.640625 0.343750
vt 0.640625 0.406250
vt 0.765625 0.226562
vt 0.773438 0.226562
vt 0.773438 0.242188
vt 0.765625 0.242188
vt 0.765625 0.257812
vt 0.773438 0.257812
vt 0.773438 0.273438
vt 0.765625 0.273438
vt 0.621094 0.351562
vt 0.628906 0.351562
vt 0.628906 0.367188
vt 0.621094 0.367188
vt 0.726562 0.335938
vt 0.742188 0.335938
vt 0.742188 0.398438
vt 0.726562 0.398438
vt 0.000000 0.062500
vt 0.375000 0.062500
vt 0.375000 0.125000
vt 0.000000 0.125000
vt 0.000000 0.000000
vt 0.375000 0.000000
vt 0.625000 0.625000
vt 1.000000 0.625000
vt 1.000000 1.000000
vt 0.625000 1.000000
vt 0.625000 0.250000
vt 0.250000 0.623438
vt 0.375000 0.623438
vt 0.375000 0.810938
vt 0.250000 0.810938
vt 0.000000 0.875000
vt 0.000000 1.000000
vt 0.500000 0.671875
vt 0.531250 0.671875
vt 0.531250 0.734375
vt 0.500000 0.734375
vt 0.703125 1.000000
vt 0.484375 1.000000
vt 0.484375 0.781250
vt 0.703125 0.781250
vt 0.265625 0.875000
vt 0.265625 1.000000
vt 0.484375 0.875000
vt 0.468750 0.875000
vt 0.468750 1.000000
vt 0.500000 0.781250
vt 0.500000 1.000000
vt 0.468750 0.765625
vt 0.484375 0.765625
vt 0.000000 0.937500
vt 0.007812 0.937500
vt 0.007812 1.000000
vt 0.500000 0.984375
vt 0.687500 0.984375
vt 0.687500 1.000000
vt 0.335938 0.812500
vt 0.468750 0.812500
vt 0.468750 0.843750
vt 0.335938 0.843750
vt 0.703125 0.960938
vt 0.750000 1.000000
vt 0.750000 0.960938
vt 0.703125 0.929688
vt 0.750000 0.929688
vt 0.781250 0.953125
vt 0.812500 0.953125
vt 0.812500 1.000000
vt 0.781250 1.000000
vt 0.750000 0.820312
vt 0.781250 0.820312
vt 0.781250 0.968750
vt 0.812500 0.968750
vt 0.812500 0.820312
vt 0.703125 0.820312
vt 0.011719 0.957031
vt 0.015625 0.957031
vt 0.015625 0.980469
vt 0.011719 0.980469
vt 0.019531 0.957031
vt 0.089844 0.957031
vt 0.089844 0.980469
vt 0.019531 0.980469
vt 0.000000 0.957031
vt 0.003906 0.957031
vt 0.003906 0.980469
vt 0.000000 0.980469
vt 0.019531 0.996094
vt 0.089844 0.996094
vt 0.089844 1.000000
vt 0.019531 1.000000
vt 0.019531 0.984375
vt 0.089844 0.984375
vt 0.089844 0.988281
vt 0.019531 0.988281
vt 0.703125 0.773438
vt 0.734375 0.773438
vt 0.734375 0.812500
vt 0.703125 0.812500
vt 0.734375 0.664062
vt 0.703125 0.664062
vt 0.734375 0.640625
vt 0.812500 0.640625
vt 0.812500 0.734375
vt 0.734375 0.734375
vt 0.812500 0.812500
vt 0.375000 0.507812
vt 0.382812 0.507812
vt 0.382812 0.570312
vt 0.375000 0.570312
vt 0.445312 0.507812
vt 0.453125 0.507812
vt 0.453125 0.570312
vt 0.445312 0.570312
vt 0.382812 0.585938
vt 0.390625 0.585938
vt 0.390625 0.617188
vt 0.382812 0.617188
vt 0.421875 0.585938
vt 0.429688 0.585938
vt 0.429688 0.617188
vt 0.421875 0.617188
vt 0.421875 0.625000
vt 0.390625 0.625000
vt 0.390625 0.578125
vt 0.421875 0.578125
vt 0.422656 0.585938
vt 0.422656 0.616406
vt 0.390625 0.616406
vt 0.003906 0.921875
vt 0.011719 0.921875
vt 0.011719 1.000000
vt 0.386719 0.578125
vt 0.425781 0.578125
vt 0.425781 0.585938
vt 0.386719 0.585938
vt 0.445312 0.578125
vt 0.382812 0.578125
vt 0.382812 0.500000
vt 0.445312 0.500000
vn -0.0000 -0.0000 -1.0000
vn 1.0000 -0.0000 -0.0000
vn -0.0000 -0.0000 1.0000
vn -1.0000 -0.0000 -0.0000
vn -0.0000 1.0000 -0.0000
vn -0.0000 -1.0000 -0.0000
vn -0.3007 -0.0000 -0.9537
vn 0.9537 -0.0000 -0.3007
vn 0.3007 -0.0000 0.9537
vn -0.9537 -0.0000 0.3007
usemtl m_1ad2ec67-72f7-1384-ba00-2df0bb66a7f6
f 4/1/1 7/2/1 5/3/1 2/4/1
f 3/1/2 4/2/2 2/3/2 1/4/2
f 7/1/4 8/2/4 6/3/4 5/4/4
f 6/9/5 1/10/5 2/3/5 5/4/5
f 7/11/6 4/12/6 3/13/6 8/14/6
f 20/9/1 23/10/1 21/3/1 18/4/1
f 19/46/2 20/10/2 18/3/2 17/47/2
f 23/9/4 1/46/4 22/47/4 21/4/4
f 22/1/5 17/2/5 18/3/5 21/4/5
f 23/9/6 20/10/6 19/2/6 1/1/6
f 43/74/1 45/75/1 44/76/1 41/77/1
f 42/74/2 43/75/2 41/76/2 40/77/2
f 46/78/3 42/79/3 40/75/3 16/74/3
f 45/78/4 46/79/4 16/75/4 44/74/4
f 16/80/5 40/81/5 41/82/5 44/83/5
f 45/84/6 43/3/6 42/81/6 46/80/6
usemtl m_782eb0aa-5cc2-1557-d681-881ca9c8f77b
f 8/5/3 3/6/3 1/7/3 6/8/3
f 6/15/2 5/16/2 10/17/2 9/18/2
f 14/19/3 6/20/3 9/21/3 12/22/3
f 13/29/6 5/30/6 6/31/6 14/32/6
f 8/33/2 7/34/2 5/16/2 6/15/2
f 16/35/3 8/36/3 6/20/3 14/19/3
f 14/38/5 6/39/5 5/40/5 13/41/5
f 15/42/6 7/43/6 8/44/6 16/45/6
f 1/48/3 19/49/3 17/50/3 22/51/3
f 27/52/1 30/53/1 28/54/1 25/55/1
f 26/56/2 27/53/2 25/54/2 24/57/2
f 31/52/3 26/56/3 24/57/3 29/55/3
f 30/56/4 31/53/4 29/54/4 28/57/4
f 29/58/5 24/59/5 25/60/5 28/61/5
f 30/62/6 27/63/6 26/64/6 31/65/6
f 35/52/1 38/53/1 36/54/1 33/55/1
f 34/56/2 35/53/2 33/54/2 32/57/2
f 39/56/3 34/52/3 32/55/3 37/57/3
f 38/56/4 39/53/4 37/54/4 36/57/4
f 37/66/5 32/67/5 33/68/5 36/69/5
f 38/70/6 35/71/6 34/72/6 39/73/6
f 48/35/1 50/36/1 49/21/1 47/22/1
f 7/85/2 48/86/2 47/87/2 10/88/2
f 50/29/6 48/30/6 7/31/6 15/32/6
f 54/91/1 57/92/1 55/93/1 52/94/1
f 53/91/2 54/92/2 52/93/2 51/94/2
f 58/91/3 53/92/3 51/93/3 56/94/3
f 57/91/4 58/92/4 56/93/4 55/94/4
f 62/91/1 65/92/1 63/93/1 60/94/1
f 61/91/2 62/92/2 60/93/2 59/94/2
f 66/91/3 61/92/3 59/93/3 64/94/3
f 65/91/4 66/92/4 64/93/4 63/94/4
f 70/91/1 73/92/1 71/93/1 68/94/1
f 69/91/2 70/92/2 68/93/2 67/94/2
f 74/91/3 69/92/3 67/93/3 72/94/3
f 73/91/4 74/92/4 72/93/4 71/94/4
f 78/91/1 81/92/1 79/93/1 76/94/1
f 77/91/2 78/92/2 76/93/2 75/94/2
f 82/91/3 77/92/3 75/93/3 80/94/3
f 81/91/4 82/92/4 80/93/4 79/94/4
f 149/164/1 152/165/1 150/166/1 147/167/1
f 153/168/3 148/169/3 146/170/3 151/171/3
f 152/165/4 153/168/4 151/171/4 150/166/4
f 151/164/5 146/165/5 147/166/5 150/167/5
f 152/170/6 149/171/6 148/168/6 153/169/6
f 157/172/1 160/173/1 158/174/1 155/175/1
f 161/176/3 156/177/3 154/178/3 159/179/3
f 160/173/4 161/176/4 159/179/4 158/174/4
f 159/174/5 154/179/5 155/180/5 158/181/5
f 160/182/6 157/183/6 156/176/6 161/173/6
f 165/173/1 168/184/1 166/185/1 163/186/1
f 164/172/2 165/173/2 163/174/2 162/175/2
f 168/187/4 169/188/4 167/189/4 166/14/4
f 167/174/5 162/179/5 163/180/5 166/181/5
f 168/190/6 165/191/6 164/192/6 169/193/6
f 173/165/1 176/168/1 174/171/1 171/166/1
f 172/164/2 173/165/2 171/166/2 170/167/2
f 176/169/4 177/168/4 175/171/4 174/170/4
f 175/166/5 170/171/5 171/194/5 174/195/5
f 176/168/6 173/165/6 172/196/6 177/197/6
usemtl m_03214379-8c69-6280-1de7-4a6f3926f3b9
f 13/23/4 14/24/4 12/25/4 11/26/4
f 12/25/5 9/27/5 10/28/5 11/26/5
f 15/16/4 16/37/4 14/24/4 13/23/4
f 50/15/4 15/16/4 11/26/4 49/89/4
f 11/26/5 10/28/5 47/90/5 49/89/5
f 88/95/5 83/96/5 84/97/5 87/98/5
f 89/97/6 86/98/6 85/95/6 90/96/6
f 76/25/1 95/99/1 93/100/1 92/27/1
f 67/25/2 76/101/2 92/96/2 91/27/2
f 96/101/3 67/102/3 91/103/3 94/96/3
f 95/25/4 96/101/4 94/96/4 93/27/4
f 94/97/5 91/104/5 92/105/5 93/96/5
f 95/97/6 76/104/6 67/105/6 96/96/6
f 100/25/1 55/99/1 101/100/1 98/27/1
f 99/25/2 100/101/2 98/96/2 97/27/2
f 64/101/3 99/102/3 97/103/3 102/96/3
f 55/25/4 64/101/4 102/96/4 101/27/4
f 102/106/5 97/107/5 98/96/5 101/103/5
f 55/96/6 100/103/6 99/106/6 64/107/6
f 85/99/1 90/102/1 104/103/1 103/100/1
f 96/108/2 85/109/2 103/110/2 94/90/2
f 99/99/3 96/102/3 94/103/3 97/100/3
f 90/108/4 99/109/4 97/110/4 104/90/4
f 97/111/5 94/112/5 103/113/5 104/105/5
f 90/114/6 85/115/6 96/116/6 99/117/6
f 95/99/1 100/102/1 98/103/1 93/100/1
f 86/108/2 95/109/2 93/110/2 105/90/2
f 89/99/3 86/102/3 105/103/3 106/100/3
f 100/108/4 89/109/4 106/110/4 98/90/4
f 106/111/5 105/112/5 93/113/5 98/105/5
f 100/111/6 95/112/6 86/113/6 89/105/6
f 110/118/7 113/95/7 111/119/7 108/120/7
f 109/118/8 110/121/8 108/122/8 107/120/8
f 114/95/9 109/118/9 107/120/9 112/119/9
f 113/123/10 114/124/10 112/125/10 111/126/10
f 118/127/7 111/119/7 119/126/7 116/128/7
f 112/119/9 117/127/9 115/128/9 120/126/9
f 111/129/10 112/130/10 120/125/10 119/126/10
f 120/131/5 115/125/5 116/126/5 119/128/5
f 111/131/6 118/125/6 117/126/6 112/128/6
f 123/132/7 110/118/7 108/120/7 118/127/7
f 122/133/8 123/134/8 118/135/8 121/136/8
f 125/137/9 122/138/9 121/139/9 124/140/9
f 110/141/10 125/142/10 124/143/10 108/144/10
f 124/145/5 121/146/5 118/147/5 108/148/5
f 110/149/6 123/150/6 122/151/6 125/152/6
f 128/153/8 129/154/8 127/155/8 126/156/8
f 109/153/9 128/154/9 126/155/9 131/156/9
f 131/156/5 126/153/5 127/154/5 130/155/5
f 137/157/9 134/154/9 132/153/9 126/158/9
f 126/157/5 132/154/5 133/153/5 127/158/5
f 136/157/6 135/154/6 134/153/6 137/158/6
f 141/159/7 144/160/7 142/161/7 139/162/7
f 140/159/8 141/160/8 139/161/8 138/162/8
f 145/159/9 140/160/9 138/161/9 143/162/9
f 144/159/10 145/160/10 143/161/10 142/162/10
f 143/162/5 138/161/5 139/163/5 142/155/5
f 144/162/6 141/161/6 140/163/6 145/155/6
